<?xml version="1.0" encoding="iso-8859-1"?>
<!-- Generator: Adobe Illustrator 19.0.0, SVG Export Plug-In . SVG Version: 6.00 Build 0)  -->
<svg version="1.1" id="Capa_1" xmlns="http://www.w3.org/2000/svg" xmlns:xlink="http://www.w3.org/1999/xlink" x="0px" y="0px"
	 viewBox="0 0 512 512" style="enable-background:new 0 0 512 512;" xml:space="preserve">
<path style="fill:#136EF1;" d="M421,180h-45c-8.291,0-15-6.709-15-15s6.709-15,15-15h45c16.538,0,30-13.462,30-30s-13.462-30-30-30
	h-15c-24.814,0-45-20.186-45-45s20.186-45,45-45h91c8.291,0,15,6.709,15,15s-6.709,15-15,15h-91c-8.276,0-15,6.724-15,15
	s6.724,15,15,15h15c33.091,0,60,26.909,60,60S454.091,180,421,180z"/>
<path style="fill:#1689FC;" d="M226,60C101.928,60,0,160.928,0,285c0,73.246,36.519,137.963,90.874,179.052L339.339,91.254
	C306.242,71.677,267.774,60,226,60z"/>
<path style="fill:#17ACE8;" d="M391.286,133.057c-15.027-16.406-32.617-30.37-51.947-41.803C331.612,90.557,323.857,90,316,90
	C175.39,90,61,204.39,61,345c0,42.118,10.671,82.758,29.874,119.052c14.152,10.697,29.284,20.176,45.749,27.334l4.318-5.42
	l265.99-333.977C402.072,145.393,396.819,139.096,391.286,133.057z"/>
<path style="fill:#136EF1;" d="M427.956,186.163c-5.938-12.057-13.09-23.399-21.026-34.175C396.729,150.76,386.435,150,376,150
	c-45.013,0-87.268,11.829-124.014,32.38l167.443,217.25c12.29-20.616,21.541-43.4,26.722-67.96
	C457.074,279.89,449.233,229.365,427.956,186.163z"/>
<path style="fill:#1689FC;" d="M300.575,194.766c-15.789-6.531-32.109-10.203-48.589-12.385
	c-14.502,8.112-28.109,17.598-40.695,28.282c-10.814,9.181-20.863,19.224-30.02,30.059L358.27,466.516
	c3.148-2.292,6.33-4.532,9.357-6.984c20.522-16.615,38.08-36.887,51.802-59.903C420.44,391.533,421,383.318,421,375
	C421,295.811,373.729,225.073,300.575,194.766z"/>
<path style="fill:#136EF1;" d="M274.633,273.032c-28.325-19.014-60.244-29.773-93.362-32.311
	c-7.822,9.258-14.857,19.146-21.317,29.458c-6.72,10.728-12.803,21.887-17.893,33.604l158.698,193.268
	c7.251-2.576,14.306-5.588,21.227-8.875c12.773-6.064,24.884-13.359,36.284-21.66C359.976,456.134,361,445.609,361,435
	C361,369.932,328.715,309.375,274.633,273.032z"/>
<path style="fill:#1689FC;" d="M253.129,367.017c-29.344-33.702-68.566-55.256-111.068-63.234
	c-3.997,9.201-7.432,18.686-10.336,28.411C124.829,355.287,121,379.693,121,405c0,29.863,5.687,58.859,15.623,86.385
	c11.849,5.153,24.269,11.163,37.066,14.226C190.507,509.638,207.964,512,226,512c15.055,0,29.826-2.692,44.235-5.616
	c10.399-2.111,20.623-5.814,30.524-9.333C301.324,449.583,285.277,403.943,253.129,367.017z"/>
<g>
</g>
<g>
</g>
<g>
</g>
<g>
</g>
<g>
</g>
<g>
</g>
<g>
</g>
<g>
</g>
<g>
</g>
<g>
</g>
<g>
</g>
<g>
</g>
<g>
</g>
<g>
</g>
<g>
</g>
</svg>
